<?xml version="1.0" encoding="utf-8"?>
<!DOCTYPE svg PUBLIC "-//W3C//DTD SVG 1.1//EN" "http://www.w3.org/Graphics/SVG/1.1/DTD/svg11.dtd">
<svg xmlns="http://www.w3.org/2000/svg" viewBox="0 0 104.93 44.62">
<defs>
  <style>.cls-1{fill:#353535;}.cls-2{fill:#fff;}.cls-3{fill:none;}.cls-4{fill:#043956;}.cls-5{fill:#0c6891;}.cls-6{fill:#228fb7;}.cls-7{fill:#28b4da;}.cls-8{fill:#60cae9;}.cls-9{fill:#98d8ea;}</style>
</defs>
<title>360Development</title>
<g id="Layer_2" data-name="Layer 2"><g id="Layer_1-2" data-name="Layer 1"><rect class="cls-1" y="34.16" width="104.93" height="10.47" rx="3.74" ry="3.74"/><path class="cls-2" d="M1.74,39.88h0a1.8,1.8,0,0,1,1.74-2,1.51,1.51,0,0,1,1.2.57V36.58H5.76v5.21H4.68v-.55a1.41,1.41,0,0,1-1.2.62A1.8,1.8,0,0,1,1.74,39.88Zm3,0h0a1,1,0,0,0-.93-1.06,1,1,0,0,0-.93,1.06h0a1,1,0,0,0,.93,1.06A1,1,0,0,0,4.69,39.88Z"/><path class="cls-2" d="M7.91,39.9v0a1.91,1.91,0,0,1,1.89-2A1.87,1.87,0,0,1,11.67,40c0,.09,0,.19,0,.29H9a.88.88,0,0,0,.93.75,1.25,1.25,0,0,0,.93-.4l.62.55a1.88,1.88,0,0,1-1.56.72A1.92,1.92,0,0,1,7.91,39.9Zm2.7-.32c-.07-.49-.35-.82-.81-.82s-.74.32-.83.82Z"/><path class="cls-2" d="M13.31,38h1.15l.86,2.57L16.18,38h1.13L15.8,41.82h-1Z"/><path class="cls-2" d="M18.9,39.9v0a1.91,1.91,0,0,1,1.89-2A1.87,1.87,0,0,1,22.66,40c0,.09,0,.19,0,.29H20a.89.89,0,0,0,.94.75,1.25,1.25,0,0,0,.92-.4l.63.55A2,2,0,0,1,18.9,39.9Zm2.7-.32a.82.82,0,0,0-.81-.82c-.45,0-.74.32-.83.82Z"/><path class="cls-2" d="M24.87,36.58H26v5.21H24.87Z"/><path class="cls-2" d="M28.16,39.9v0a2.07,2.07,0,0,1,4.14,0h0a2,2,0,0,1-2.08,2A2,2,0,0,1,28.16,39.9Zm3.07,0v0a1,1,0,0,0-1-1.05,1,1,0,0,0-1,1h0a1,1,0,0,0,1,1.06A1,1,0,0,0,31.23,39.9Z"/><path class="cls-2" d="M34.45,38h1.08v.55a1.44,1.44,0,0,1,1.2-.62,1.8,1.8,0,0,1,1.74,2h0a1.8,1.8,0,0,1-1.74,2,1.48,1.48,0,0,1-1.2-.57v1.65H34.45Zm2.93,1.92h0a.94.94,0,1,0-1.86,0h0a.94.94,0,1,0,1.86,0Z"/><path class="cls-2" d="M40.63,38h1.08v.55a1.35,1.35,0,0,1,1.13-.62,1.14,1.14,0,0,1,1.08.61,1.6,1.6,0,0,1,1.26-.61c.81,0,1.29.49,1.29,1.41v2.49H45.38V39.66c0-.52-.22-.78-.63-.78s-.66.26-.66.78v2.13H43V39.66c0-.52-.23-.78-.64-.78s-.66.26-.66.78v2.13H40.63Z"/><path class="cls-2" d="M48.59,39.9v0a1.91,1.91,0,0,1,1.89-2A1.86,1.86,0,0,1,52.34,40c0,.09,0,.19,0,.29H49.67a.88.88,0,0,0,.93.75,1.25,1.25,0,0,0,.93-.4l.62.55a2,2,0,0,1-3.56-1.26Zm2.7-.32c-.07-.49-.35-.82-.81-.82s-.74.32-.83.82Z"/><path class="cls-2" d="M54.51,38H55.6v.55a1.34,1.34,0,0,1,1.12-.62A1.25,1.25,0,0,1,58,39.31v2.48H56.93V39.66c0-.52-.24-.78-.65-.78s-.68.26-.68.78v2.13H54.51Z"/><path class="cls-2" d="M60.5,40.71V38.89H60V38h.46V37h1.09v1h.9v.93h-.9v1.64c0,.25.1.37.35.37a1,1,0,0,0,.53-.14v.87a1.56,1.56,0,0,1-.86.23C61,41.86,60.5,41.59,60.5,40.71Z"/><path class="cls-2" d="M65.2,39.74a3.09,3.09,0,0,0,1.66,2.69l-.23.37a3.35,3.35,0,0,1,0-6.12l.23.37A3.09,3.09,0,0,0,65.2,39.74Z"/><path class="cls-2" d="M71.11,40H69.89v1.76h-.56v-5H71.2c1.13,0,1.87.6,1.87,1.59S72.17,40,71.11,40Zm0-2.72H69.89v2.2h1.24c.83,0,1.37-.44,1.37-1.1S72,37.31,71.16,37.31Z"/><path class="cls-2" d="M78.17,38.1h.6l-1.61,3.72h-.49l-1.6-3.72h.61l1.24,3.06Z"/><path class="cls-2" d="M81.74,40.74a.55.55,0,0,0,.62.62,1.18,1.18,0,0,0,.53-.13v.47a1.37,1.37,0,0,1-.66.16,1,1,0,0,1-1-1V38.58h-.51V38.1h.51V37h.56V38.1h1.17v.48H81.74Z"/><path class="cls-2" d="M85.26,36.68a3.35,3.35,0,0,1,0,6.12L85,42.43a3,3,0,0,0,0-5.38Z"/><path class="cls-2" d="M89.79,36.79h.57v4.48h2.81v.52H89.79Z"/><path class="cls-2" d="M96.08,40.74a.55.55,0,0,0,.62.62,1.19,1.19,0,0,0,.54-.13v.47a1.37,1.37,0,0,1-.66.16,1,1,0,0,1-1-1V38.58H95V38.1h.51V37h.55V38.1h1.17v.48H96.08Z"/><path class="cls-2" d="M102.44,41.79v-.74a1.66,1.66,0,0,1-1.41.82A1.93,1.93,0,0,1,101,38a1.64,1.64,0,0,1,1.41.79V36.58H103v5.21Zm-1.31-3.28a1.3,1.3,0,0,0-1.3,1.43,1.33,1.33,0,0,0,1.3,1.44,1.44,1.44,0,0,0,0-2.87Z"/><path class="cls-2" d="M33.76,24.76l3.9-4.14c1.76,2.21,3.6,3.44,6.21,3.44a3.37,3.37,0,0,0,3.64-3.49v-.08c0-2.34-1.87-3.65-5-3.65H40.12l-.88-4,6.14-6.9H35.26V.49h17.4V5.26L46.15,12.2c3.5.65,6.92,2.71,6.92,8.05v.08c0,5.42-3.53,9.4-9.27,9.4A12,12,0,0,1,33.76,24.76Z"/><path class="cls-2" d="M60.24,26.65c-1.87-2.09-3.05-5.17-3.05-10.88v-.08C57.19,6.82,60.79,0,68.48,0a11.24,11.24,0,0,1,8.06,3.16l-3,4.89c-1.7-1.44-3.06-2.3-5.26-2.3-3.87,0-5,4.15-5.19,6.65a8.43,8.43,0,0,1,5.33-1.85c5.12,0,9,3.17,9,9.16v.08a9.54,9.54,0,0,1-9.82,9.94A9.23,9.23,0,0,1,60.24,26.65Zm11.62-6.57V20c0-2.42-1.69-4.19-4.48-4.19S63,17.54,63,20V20a4.16,4.16,0,0,0,4.49,4.27A4,4,0,0,0,71.86,20.08Z"/><path class="cls-2" d="M81.54,15v-.08C81.54,6.53,86.18,0,93,0s11.4,6.45,11.4,14.78v.09c0,8.33-4.6,14.86-11.48,14.86S81.54,23.28,81.54,15Zm17.07,0v-.08c0-5.22-2.28-9.16-5.67-9.16s-5.59,3.82-5.59,9.07v.09C87.35,20.12,89.6,24,93,24S98.61,20.16,98.61,15Z"/><path class="cls-2" d="M7.08,16.41V15l4-1.59v1.42l-2.63.88,2.63.87V18Z"/><path class="cls-2" d="M16.54,12.13h1.23l-3.55,7.43H13Z"/><path class="cls-2" d="M19.81,16.59l2.62-.87-2.62-.89V13.41l4,1.59v1.41l-4,1.59Z"/><polygon class="cls-3" points="27.51 15.98 21.71 5.93 9.55 5.77 3.68 15.95 9.66 26.3 21.55 26.3 27.51 15.98"/><polygon class="cls-4" points="9.64 26.3 9.66 26.3 3.68 15.95 0 22.32 0 24.32 6.38 20.64 9.64 26.3"/><polygon class="cls-5" points="9.55 5.77 0 5.64 0 22.32 3.68 15.95 9.55 5.77"/><polygon class="cls-6" points="21.71 5.93 18.5 0.37 0 0.37 0 5.64 9.55 5.77 21.71 5.93"/><polygon class="cls-7" points="27.51 15.98 30.93 10.05 30.93 0.37 18.5 0.37 21.71 5.93 27.51 15.98"/><polygon class="cls-8" points="21.55 26.3 30.93 26.3 30.93 10.05 27.51 15.98 21.55 26.3"/><polygon class="cls-9" points="9.66 26.3 9.64 26.3 12.53 31.3 30.93 31.3 30.93 26.3 21.55 26.3 9.66 26.3"/><polygon class="cls-4" points="0 31.3 12.53 31.3 9.64 26.3 6.38 20.64 0 24.32 0 26.3 0 31.3"/></g></g></svg>