<svg xmlns="http://www.w3.org/2000/svg" fill="none" viewBox="0 0 18 17" height="17" width="18">
<path stroke-linejoin="round" stroke-linecap="round" stroke-width="2" stroke="white" d="M1 1H5.734C6.57102 1 7.37376 1.33251 7.96563 1.92437C8.55749 2.51624 8.89 3.31898 8.89 4.156V15.202C8.89 14.5742 8.64062 13.9722 8.19672 13.5283C7.75282 13.0844 7.15077 12.835 6.523 12.835H1V1Z"></path>
<path stroke-linejoin="round" stroke-linecap="round" stroke-width="2" stroke="white" d="M16.7796 1H12.0456C11.2086 1 10.4059 1.33251 9.81402 1.92437C9.22215 2.51624 8.88965 3.31898 8.88965 4.156V15.202C8.88965 14.5742 9.13903 13.9722 9.58293 13.5283C10.0268 13.0844 10.6289 12.835 11.2566 12.835H16.7796V1Z"></path>
</svg>

