<svg xmlns="http://www.w3.org/2000/svg" xmlns:xlink="http://www.w3.org/1999/xlink" width="143.053" height="26.666" viewBox="0 0 143.053 26.666">
  <defs>
    <linearGradient id="linear-gradient" x1="0.5" y1="1" x2="0.5" gradientUnits="objectBoundingBox">
      <stop offset="0" stop-color="#27e97a"/>
      <stop offset="0.376" stop-color="#1ad89d"/>
      <stop offset="0.777" stop-color="#0ecabd"/>
      <stop offset="1" stop-color="#09c4c9"/>
    </linearGradient>
  </defs>
  <g id="logo-BF" transform="translate(-0.498 -0.458)">
    <path id="Path_404" data-name="Path 404" d="M184.453,34.216V47.354h5.631c2.965,0,4.73-1.332,4.73-3.566a3.21,3.21,0,0,0-3-3.322,2.856,2.856,0,0,0,2.421-2.966c0-2.065-1.595-3.285-4.242-3.285h-5.537Zm1.5,1.445h3.961c1.764,0,2.8.751,2.8,2.083,0,1.37-1.032,2.14-2.8,2.14h-3.961V35.661Zm0,5.65h3.961c2.14,0,3.378.845,3.378,2.271,0,1.5-1.239,2.346-3.378,2.346h-3.961V41.311Zm12.3-3.848h-1.464v9.891h1.464V42.1A3.281,3.281,0,0,1,201.8,38.89V37.407a3.7,3.7,0,0,0-3.548,2.252v-2.2Zm5.335-3.847a1.015,1.015,0,1,0,.958,1.013.963.963,0,0,0-.958-1.013Zm.732,13.739V37.463h-1.445v9.891h1.445Zm11.753-13.927h-1.464V39.6a4.137,4.137,0,0,0-3.866-2.215,4.665,4.665,0,0,0-4.748,5.011,4.7,4.7,0,0,0,4.767,5.03,4.126,4.126,0,0,0,3.848-2.2v2.121h1.464V33.428Zm-5.03,12.688a3.7,3.7,0,1,1,3.566-3.679,3.5,3.5,0,0,1-3.566,3.679Zm16.409-8.653h-1.464v2.008a3.954,3.954,0,0,0-3.679-2.065,4.42,4.42,0,0,0-4.467,4.73,4.445,4.445,0,0,0,4.5,4.786,3.9,3.9,0,0,0,3.641-2.065v1.5a3.255,3.255,0,0,1-3.566,3.378,5.066,5.066,0,0,1-3.322-1.258l-.676,1.126a6.656,6.656,0,0,0,4.054,1.426c3,0,4.974-1.821,4.974-4.711V37.463Zm-4.843,8.221a3.5,3.5,0,1,1,3.378-3.491,3.328,3.328,0,0,1-3.378,3.491Zm11.172-8.259a4.735,4.735,0,0,0-4.9,4.993,4.729,4.729,0,0,0,4.917,4.992,5.2,5.2,0,0,0,3.979-1.652l-.807-.863a4.129,4.129,0,0,1-3.059,1.239,3.466,3.466,0,0,1-3.585-3.153H238.4c.15-3.36-1.427-5.574-4.617-5.556Zm-3.454,4.355a3.338,3.338,0,0,1,3.454-3.1,3.083,3.083,0,0,1,3.3,3.1Z" transform="translate(-141.201 -27.279)" fill="#fff"/>
    <path id="Path_405" data-name="Path 405" d="M519.845,36.206l.019-1.989h-8.821V47.355h2.215V41.968h5.968V40h-5.968V36.206Zm10.606,1.164h-2.159v4.917a2.821,2.821,0,0,1-2.74,3.116,2.2,2.2,0,0,1-2.328-2.421V37.37h-2.158v6.213c0,2.384,1.37,3.848,3.66,3.848a3.68,3.68,0,0,0,3.566-2.027v1.952h2.159V37.37Zm8.71-.075a3.771,3.771,0,0,0-3.679,1.99V37.37h-2.159v9.985h2.159V42.043a2.8,2.8,0,0,1,2.834-2.721,2.224,2.224,0,0,1,2.4,2.421v5.612h2.158V41.142a3.488,3.488,0,0,0-3.716-3.847Zm15.8-3.866h-2.158V39.1a3.947,3.947,0,0,0-3.547-1.821c-2.815,0-4.749,2.046-4.749,5.049,0,3.041,1.914,5.124,4.786,5.124a3.869,3.869,0,0,0,3.51-1.8v1.708h2.158V33.428Zm-5.218,12.219A3.043,3.043,0,0,1,546.67,42.4a3.075,3.075,0,0,1,3.078-3.285,3.041,3.041,0,0,1,3.06,3.285,3.029,3.029,0,0,1-3.06,3.247Z" transform="translate(-411.415 -27.279)" fill="#fff"/>
    <path id="Path_406" data-name="Path 406" d="M16.653,14.173c.009-2.921-1.411-5.591-4.225-7.949C9.613,8.582,8.192,11.252,8.2,14.172v.005a4.226,4.226,0,1,0,8.452,0ZM5.09,14.181A11.947,11.947,0,0,1,7,7.673a16.147,16.147,0,0,1,2.821-3.3A38.469,38.469,0,0,0,.5.459V15.2a11.928,11.928,0,0,0,23.857,0V.458c-.721.2-1.61.471-2.6.813a36.061,36.061,0,0,0-6.715,3.09,17.413,17.413,0,0,1,1.7,1.771l-.012.007a14.559,14.559,0,0,1,1.12,1.534,11.941,11.941,0,0,1,1.909,6.509,7.337,7.337,0,1,1-14.675,0Z" transform="translate(0)" fill-rule="evenodd" fill="url(#linear-gradient)"/>
  </g>
</svg>
