<?xml version="1.0" encoding="utf-8"?>
<!-- Generator: Adobe Illustrator 18.0.0, SVG Export Plug-In . SVG Version: 6.00 Build 0)  -->
<!DOCTYPE svg PUBLIC "-//W3C//DTD SVG 1.1//EN" "http://www.w3.org/Graphics/SVG/1.1/DTD/svg11.dtd">
<svg version="1.1" id="Layer_1" xmlns="http://www.w3.org/2000/svg" xmlns:xlink="http://www.w3.org/1999/xlink" x="0px" y="0px"
	 viewBox="0 0 146.7 29.6" enable-background="new 0 0 146.7 29.6" xml:space="preserve">
<g>
	<path fill="#FFFFFF" d="M35.3,7.2v14.6h6.3c3.3,0,5.3-1.5,5.3-4c0-2-1.2-3.4-3.3-3.7c1.7-0.4,2.7-1.6,2.7-3.3
		c0-2.3-1.8-3.7-4.7-3.7L35.3,7.2L35.3,7.2z M37,8.8h4.4c2,0,3.1,0.8,3.1,2.3c0,1.5-1.1,2.4-3.1,2.4H37V8.8L37,8.8z M37,15.1h4.4
		c2.4,0,3.8,0.9,3.8,2.5c0,1.7-1.4,2.6-3.8,2.6H37V15.1L37,15.1z M50.6,10.8H49v11h1.6V16c0.2-2.2,1.6-3.6,3.9-3.6v-1.6
		c-1.9,0-3.2,0.9-3.9,2.5V10.8L50.6,10.8z M56.6,6.5c-0.6,0-1.1,0.5-1.1,1.1s0.5,1.1,1.1,1.1c0.6,0,1.1-0.5,1.1-1.1
		S57.2,6.5,56.6,6.5L56.6,6.5z M57.4,21.8v-11h-1.6v11L57.4,21.8L57.4,21.8z M70.4,6.3h-1.6v6.9c-0.8-1.6-2.3-2.5-4.3-2.5
		c-3.1,0-5.3,2.3-5.3,5.6c0,3.3,2.2,5.6,5.3,5.6c2,0,3.5-0.9,4.3-2.4v2.4h1.6V6.3L70.4,6.3z M64.8,20.4c-2.3,0-4-1.7-4-4.1
		c0-2.4,1.6-4.1,4-4.1c2.3,0,4,1.7,4,4.1C68.8,18.7,67.2,20.4,64.8,20.4L64.8,20.4z M83.1,10.8h-1.6V13c-0.8-1.5-2.2-2.3-4.1-2.3
		c-2.9,0-5,2.2-5,5.3c0,3.1,2,5.3,5,5.3c1.9,0,3.3-0.8,4-2.3v1.7c0,2.3-1.6,3.8-4,3.8c-1.5,0-2.6-0.5-3.7-1.4L73,24.3
		c1.3,1,2.8,1.6,4.5,1.6c3.3,0,5.5-2,5.5-5.2L83.1,10.8L83.1,10.8z M77.7,19.9c-2.2,0-3.8-1.6-3.8-3.9c0-2.3,1.6-3.9,3.8-3.9
		c2.2,0,3.8,1.6,3.8,3.9C81.4,18.3,79.9,19.9,77.7,19.9L77.7,19.9z M90.1,10.8c-3.2,0-5.4,2.3-5.4,5.5c0,3.3,2.2,5.5,5.5,5.5
		c1.8,0,3.4-0.7,4.4-1.8l-0.9-1c-0.9,0.9-2,1.4-3.4,1.4c-2.1,0-3.7-1.4-4-3.5h9C95.4,13.2,93.6,10.7,90.1,10.8L90.1,10.8z
		 M86.3,15.6c0.3-2.1,1.8-3.4,3.8-3.4c2.1,0,3.6,1.3,3.7,3.4H86.3L86.3,15.6z"/>
	<path fill="#FFFFFF" d="M107.7,9.4l0-2.2h-9.8v14.6h2.5v-6h6.6v-2.2h-6.6V9.4H107.7L107.7,9.4z M119.5,10.7h-2.4v5.5
		c0,1.9-1.1,3.4-3,3.5c-1.6,0-2.6-1-2.6-2.7v-6.2h-2.4v6.9c0,2.6,1.5,4.3,4.1,4.3c1.8,0,3.2-0.7,4-2.3v2.2h2.4V10.7L119.5,10.7z
		 M129.2,10.6c-1.9,0-3.3,0.7-4.1,2.2v-2.1h-2.4v11.1h2.4v-5.9c0.2-1.7,1.3-3,3.1-3c1.7,0,2.7,1,2.7,2.7v6.2h2.4v-6.9
		C133.3,12.2,131.8,10.6,129.2,10.6L129.2,10.6z M146.7,6.3h-2.4v6.3c-0.8-1.3-2.1-2-3.9-2c-3.1,0-5.3,2.3-5.3,5.6
		c0,3.4,2.1,5.7,5.3,5.7c1.8,0,3.1-0.7,3.9-2v1.9h2.4V6.3L146.7,6.3z M140.9,19.9c-2,0-3.4-1.5-3.4-3.6c0-2.1,1.4-3.7,3.4-3.7
		s3.4,1.5,3.4,3.7C144.3,18.4,143,19.9,140.9,19.9L140.9,19.9z"/>
	<path fill="#FFFFFF" d="M18,15.2c0-3.2-1.6-6.2-4.7-8.8C10.1,9,8.5,12,8.6,15.2v0c0,2.6,2.1,4.7,4.7,4.7
		C15.8,19.9,17.9,17.8,18,15.2L18,15.2z M5.1,15.3c0-2.6,0.7-5,2.1-7.2C8,6.7,9.1,5.5,10.4,4.3C6.6,2.1,2.4,0.7,0,0v16.4
		c0,7.3,5.9,13.3,13.3,13.3c3.5,0,6.9-1.4,9.4-3.9c2.5-2.5,3.9-5.8,3.9-9.4V0c-0.8,0.2-1.8,0.5-2.9,0.9c-2.1,0.7-4.9,1.8-7.5,3.4
		c0.7,0.6,1.3,1.3,1.9,2c0,0,0,0,0,0c0.5,0.6,0.9,1.1,1.2,1.7c1.4,2.2,2.1,4.7,2.1,7.2c0,1.1-0.2,2.2-0.6,3.2c-0.4,1-1,1.8-1.7,2.6
		c-0.7,0.7-1.6,1.3-2.6,1.7c-1,0.4-2.1,0.6-3.2,0.6c-1.1,0-2.2-0.2-3.2-0.6c-1-0.4-1.8-1-2.6-1.7c-0.7-0.7-1.3-1.6-1.7-2.6
		C5.3,17.4,5.1,16.3,5.1,15.3L5.1,15.3z"/>
</g>
</svg>
