<svg xmlns="http://www.w3.org/2000/svg" fill="none" viewBox="0 0 17 17" height="17" width="17">
<path stroke-linejoin="round" stroke-linecap="round" stroke-width="2" stroke="white" d="M14.5 1H2.5C1.67157 1 1 1.67157 1 2.5V5.5C1 6.32843 1.67157 7 2.5 7H14.5C15.3284 7 16 6.32843 16 5.5V2.5C16 1.67157 15.3284 1 14.5 1Z"></path>
<path stroke-linejoin="round" stroke-linecap="round" stroke-width="2" stroke="white" d="M14.5 10.0001H2.5C1.67157 10.0001 1 10.6717 1 11.5001V14.5001C1 15.3285 1.67157 16.0001 2.5 16.0001H14.5C15.3284 16.0001 16 15.3285 16 14.5001V11.5001C16 10.6717 15.3284 10.0001 14.5 10.0001Z"></path>
<path stroke-linejoin="round" stroke-linecap="round" stroke-width="2" stroke="white" d="M4 3.99994H4.01"></path>
<path stroke-linejoin="round" stroke-linecap="round" stroke-width="2" stroke="white" d="M4 13.0001H4.01"></path>
</svg>


