<svg xmlns="http://www.w3.org/2000/svg" fill="none" viewBox="0 0 18 15" height="15" width="18">
<path stroke-linejoin="round" stroke-linecap="round" stroke-width="2" stroke="white" d="M12.3164 13.7308V12.3163C12.3164 11.566 12.0183 10.8464 11.4877 10.3158C10.9572 9.78528 10.2376 9.48721 9.48727 9.48721H3.82909C3.07877 9.48721 2.35918 9.78528 1.82862 10.3158C1.29806 10.8464 1 11.566 1 12.3163V13.7308"></path>
<path stroke-linejoin="round" stroke-linecap="round" stroke-width="2" stroke="white" d="M6.65819 6.65818C8.22066 6.65818 9.48728 5.39155 9.48728 3.82909C9.48728 2.26663 8.22066 1 6.65819 1C5.09573 1 3.8291 2.26663 3.8291 3.82909C3.8291 5.39155 5.09573 6.65818 6.65819 6.65818Z"></path>
<path stroke-linejoin="round" stroke-linecap="round" stroke-width="2" stroke="white" d="M16.5603 13.7309V12.3163C16.5598 11.6895 16.3512 11.0806 15.9672 10.5852C15.5831 10.0897 15.0454 9.7359 14.4385 9.57919"></path>
<path stroke-linejoin="round" stroke-linecap="round" stroke-width="2" stroke="white" d="M11.6094 1.09198C12.2179 1.24779 12.7573 1.60171 13.1425 2.09794C13.5277 2.59417 13.7367 3.20448 13.7367 3.83266C13.7367 4.46084 13.5277 5.07115 13.1425 5.56738C12.7573 6.06361 12.2179 6.41753 11.6094 6.57334"></path>
</svg>

